<svg width="50" height="50" viewBox="0 0 50 50" fill="none" xmlns="http://www.w3.org/2000/svg">
<path d="M25.0001 38.5417C25.8681 38.5417 26.6063 38.2382 27.2147 37.6313C27.823 37.0243 28.1265 36.2861 28.1251 35.4167H21.8751C21.8751 36.2847 22.1792 37.0229 22.7876 37.6313C23.3959 38.2396 24.1334 38.5431 25.0001 38.5417ZM14.5834 33.3334H35.4167V29.1667H33.3334V23.75C33.3334 21.632 32.7862 19.6965 31.6917 17.9438C30.5973 16.191 29.0612 15.0709 27.0834 14.5834V13.5417C27.0834 12.9514 26.8834 12.457 26.4834 12.0584C26.0834 11.6597 25.589 11.4597 25.0001 11.4584C24.4112 11.457 23.9167 11.657 23.5168 12.0584C23.1167 12.4597 22.9167 12.9542 22.9167 13.5417V14.5834C20.9376 15.0695 19.4015 16.1896 18.3084 17.9438C17.2154 19.6979 16.6681 21.6334 16.6668 23.75V29.1667H14.5834V33.3334ZM25.0001 45.8334C22.1181 45.8334 19.4098 45.2861 16.8751 44.1917C14.3404 43.0972 12.1355 41.6132 10.2605 39.7396C8.3855 37.866 6.90147 35.6611 5.80842 33.125C4.71536 30.5889 4.16814 27.8806 4.16675 25C4.16536 22.1195 4.71258 19.4111 5.80842 16.875C6.90425 14.3389 8.38828 12.134 10.2605 10.2604C12.1327 8.38683 14.3376 6.9028 16.8751 5.80835C19.4126 4.71391 22.1209 4.16669 25.0001 4.16669C27.8792 4.16669 30.5876 4.71391 33.1251 5.80835C35.6626 6.9028 37.8674 8.38683 39.7397 10.2604C41.6119 12.134 43.0966 14.3389 44.1938 16.875C45.2911 19.4111 45.8376 22.1195 45.8334 25C45.8293 27.8806 45.282 30.5889 44.1917 33.125C43.1015 35.6611 41.6174 37.866 39.7397 39.7396C37.8619 41.6132 35.657 43.0979 33.1251 44.1938C30.5931 45.2896 27.8848 45.8361 25.0001 45.8334Z" fill="black"/>
</svg>
